<svg xmlns="http://www.w3.org/2000/svg" width="1280" height="720" viewBox="0 0 1280 720" role="img" aria-hidden="true">
  <defs>
    <linearGradient id="sky" x1="0" y1="0" x2="1" y2="1"><stop offset="0" stop-color="#ede9fe"/><stop offset="1" stop-color="#dbeafe"/></linearGradient>
    <linearGradient id="ground" x1="0" y1="0" x2="1" y2="0"><stop offset="0" stop-color="#bbf7d0"/><stop offset="1" stop-color="#86efac"/></linearGradient>
    <filter id="soft"><feDropShadow dx="0" dy="10" stdDeviation="14" flood-color="#10202a" flood-opacity=".22"/></filter>
  </defs>
  <rect width="1280" height="720" fill="url(#sky)"/>
  <circle cx="1060" cy="130" r="72" fill="#fff4c7" opacity=".72"/>
  <path d="M0 500 C180 460 320 520 505 485 C760 435 950 510 1280 455 L1280 720 L0 720 Z" fill="url(#ground)"/>
  <g filter="url(#soft)" opacity=".96">
    <rect x="120" y="332" width="360" height="178" rx="18" fill="#f8fafc"/>
    <path d="M96 340 L300 205 L506 340 Z" fill="#475569"/>
    <rect x="172" y="396" width="88" height="114" rx="8" fill="#cbd5e1"/>
    <rect x="306" y="390" width="118" height="78" rx="10" fill="#dbeafe"/>
  </g>
  <g filter="url(#soft)">
    <rect x="650" y="400" width="410" height="86" rx="22" fill="#e2e8f0"/>
    <rect x="710" y="370" width="270" height="42" rx="16" fill="#94a3b8"/>
    <circle cx="760" cy="500" r="36" fill="#334155"/><circle cx="960" cy="500" r="36" fill="#334155"/>
    <rect x="784" y="300" width="38" height="120" rx="16" transform="rotate(-20 784 300)" fill="#f97316" opacity=".9"/>
    <rect x="880" y="292" width="34" height="132" rx="15" transform="rotate(22 880 292)" fill="#2563eb" opacity=".86"/>
  </g>
  <g opacity=".30" fill="#ffffff">
    <circle cx="180" cy="120" r="10"/><circle cx="220" cy="152" r="6"/><circle cx="1010" cy="250" r="8"/><circle cx="1120" cy="310" r="5"/>
  </g>
</svg>